<?xml version="1.0" encoding="UTF-8" standalone="no"?>
<!DOCTYPE svg PUBLIC "-//W3C//DTD SVG 1.1//EN"
 "http://www.w3.org/Graphics/SVG/1.1/DTD/svg11.dtd">
<!-- Generated by graphviz version 2.38.0 (20140413.2041)
 -->
<!-- Title: G Pages: 1 -->
<svg width="1150pt" height="762pt"
 viewBox="0.00 0.00 1150.35 762.00" xmlns="http://www.w3.org/2000/svg" xmlns:xlink="http://www.w3.org/1999/xlink">
<g id="graph0" class="graph" transform="scale(1 1) rotate(0) translate(4 758)">
<title>G</title>
<polygon fill="white" stroke="none" points="-4,4 -4,-758 1146.35,-758 1146.35,4 -4,4"/>
<g id="clust1" class="cluster"><title>cluster_Global</title>
<path fill="none" stroke="gray" d="M334.276,-260C334.276,-260 1122.35,-260 1122.35,-260 1128.35,-260 1134.35,-266 1134.35,-272 1134.35,-272 1134.35,-734 1134.35,-734 1134.35,-740 1128.35,-746 1122.35,-746 1122.35,-746 334.276,-746 334.276,-746 328.276,-746 322.276,-740 322.276,-734 322.276,-734 322.276,-272 322.276,-272 322.276,-266 328.276,-260 334.276,-260"/>
<text text-anchor="middle" x="728.313" y="-733.2" font-family="Times,serif" font-size="11.00" fill="gray">Global</text>
</g>
<g id="clust2" class="cluster"><title>cluster_\Ite</title>
<path fill="none" stroke="gray" d="M342.276,-268C342.276,-268 1114.35,-268 1114.35,-268 1120.35,-268 1126.35,-274 1126.35,-280 1126.35,-280 1126.35,-706 1126.35,-706 1126.35,-712 1120.35,-718 1114.35,-718 1114.35,-718 342.276,-718 342.276,-718 336.276,-718 330.276,-712 330.276,-706 330.276,-706 330.276,-280 330.276,-280 330.276,-274 336.276,-268 342.276,-268"/>
<text text-anchor="middle" x="728.313" y="-705.2" font-family="Times,serif" font-size="11.00" fill="gray">Ite</text>
</g>
<g id="clust3" class="cluster"><title>cluster_\Ite\Cache</title>
<path fill="none" stroke="gray" d="M350.276,-276C350.276,-276 1106.35,-276 1106.35,-276 1112.35,-276 1118.35,-282 1118.35,-288 1118.35,-288 1118.35,-678 1118.35,-678 1118.35,-684 1112.35,-690 1106.35,-690 1106.35,-690 350.276,-690 350.276,-690 344.276,-690 338.276,-684 338.276,-678 338.276,-678 338.276,-288 338.276,-288 338.276,-282 344.276,-276 350.276,-276"/>
<text text-anchor="middle" x="728.313" y="-677.2" font-family="Times,serif" font-size="11.00" fill="gray">Cache</text>
</g>
<g id="clust4" class="cluster"><title>cluster_\Ite\Cache\Exception</title>
<path fill="none" stroke="gray" d="M927.349,-384C927.349,-384 1098.35,-384 1098.35,-384 1104.35,-384 1110.35,-390 1110.35,-396 1110.35,-396 1110.35,-498 1110.35,-498 1110.35,-504 1104.35,-510 1098.35,-510 1098.35,-510 927.349,-510 927.349,-510 921.349,-510 915.349,-504 915.349,-498 915.349,-498 915.349,-396 915.349,-396 915.349,-390 921.349,-384 927.349,-384"/>
<text text-anchor="middle" x="1012.85" y="-497.2" font-family="Times,serif" font-size="11.00" fill="gray">Exception</text>
</g>
<!-- \\Ite\\Cache\\Exception\\CacheException -->
<g id="node1" class="node"><title>\\Ite\\Cache\\Exception\\CacheException</title>
<polygon fill="none" stroke="black" points="1068.35,-482 957.349,-482 957.349,-446 1068.35,-446 1068.35,-482"/>
<text text-anchor="middle" x="1012.85" y="-461.2" font-family="Courier,monospace" font-size="11.00">CacheException</text>
</g>
<!-- \\Exception -->
<g id="node11" class="node"><title>\\Exception</title>
<ellipse fill="none" stroke="black" cx="703.813" cy="-234" rx="40.8928" ry="18"/>
<text text-anchor="middle" x="703.813" y="-230.3" font-family="Times,serif" font-size="14.00" fill="gray">xception</text>
</g>
<!-- \\Ite\\Cache\\Exception\\CacheException&#45;&gt;\\Exception -->
<g id="edge3" class="edge"><title>\\Ite\\Cache\\Exception\\CacheException&#45;&gt;\\Exception</title>
<path fill="none" stroke="black" d="M957.121,-457.869C942.145,-453.909 926.881,-447.462 915.349,-437 857.095,-384.149 910.106,-324.293 851.349,-272 825.068,-248.61 786.203,-239.291 755.101,-235.723"/>
<polygon fill="none" stroke="black" points="755.174,-232.214 744.881,-234.722 754.492,-239.18 755.174,-232.214"/>
</g>
<!-- \\Psr\\Cache\\CacheException -->
<g id="node12" class="node"><title>\\Psr\\Cache\\CacheException</title>
<ellipse fill="none" stroke="black" cx="703.813" cy="-180" rx="108.581" ry="18"/>
<text text-anchor="middle" x="703.813" y="-176.3" font-family="Times,serif" font-size="14.00" fill="gray">\Psr\Cache\CacheException</text>
</g>
<!-- \\Ite\\Cache\\Exception\\CacheException&#45;&gt;\\Psr\\Cache\\CacheException -->
<g id="edge4" class="edge"><title>\\Ite\\Cache\\Exception\\CacheException&#45;&gt;\\Psr\\Cache\\CacheException</title>
<path fill="none" stroke="black" stroke-dasharray="1,5" d="M957.202,-458.77C941.963,-454.852 926.536,-448.202 915.349,-437 840.375,-361.918 929.648,-278.609 851.349,-207 842.011,-198.459 830.89,-192.196 819.009,-187.653"/>
<polygon fill="none" stroke="black" points="819.932,-184.27 809.337,-184.368 817.68,-190.898 819.932,-184.27"/>
</g>
<!-- \\Ite\\Cache\\Exception\\InvalidArgumentException -->
<g id="node2" class="node"><title>\\Ite\\Cache\\Exception\\InvalidArgumentException</title>
<polygon fill="none" stroke="black" points="1102.35,-428 923.349,-428 923.349,-392 1102.35,-392 1102.35,-428"/>
<text text-anchor="middle" x="1012.85" y="-407.2" font-family="Courier,monospace" font-size="11.00">InvalidArgumentException</text>
</g>
<!-- \\InvalidArgumentException -->
<g id="node13" class="node"><title>\\InvalidArgumentException</title>
<ellipse fill="none" stroke="black" cx="703.813" cy="-126" rx="109.681" ry="18"/>
<text text-anchor="middle" x="703.813" y="-122.3" font-family="Times,serif" font-size="14.00" fill="gray">\InvalidArgumentException</text>
</g>
<!-- \\Ite\\Cache\\Exception\\InvalidArgumentException&#45;&gt;\\InvalidArgumentException -->
<g id="edge6" class="edge"><title>\\Ite\\Cache\\Exception\\InvalidArgumentException&#45;&gt;\\InvalidArgumentException</title>
<path fill="none" stroke="black" d="M923.348,-394.447C920.511,-392.52 917.83,-390.379 915.349,-388 837.225,-313.071 931.027,-226.275 851.349,-153 842.184,-144.572 831.286,-138.358 819.629,-133.825"/>
<polygon fill="none" stroke="black" points="820.731,-130.502 810.137,-130.539 818.442,-137.117 820.731,-130.502"/>
</g>
<!-- \\Psr\\Cache\\InvalidArgumentException -->
<g id="node14" class="node"><title>\\Psr\\Cache\\InvalidArgumentException</title>
<ellipse fill="none" stroke="black" cx="703.813" cy="-72" rx="147.574" ry="18"/>
<text text-anchor="middle" x="703.813" y="-68.3" font-family="Times,serif" font-size="14.00" fill="gray">\Psr\Cache\InvalidArgumentException</text>
</g>
<!-- \\Ite\\Cache\\Exception\\InvalidArgumentException&#45;&gt;\\Psr\\Cache\\InvalidArgumentException -->
<g id="edge7" class="edge"><title>\\Ite\\Cache\\Exception\\InvalidArgumentException&#45;&gt;\\Psr\\Cache\\InvalidArgumentException</title>
<path fill="none" stroke="black" stroke-dasharray="1,5" d="M923.201,-394.597C920.405,-392.629 917.772,-390.438 915.349,-388 822.615,-294.687 946.021,-190.348 851.349,-99 846.585,-94.4028 841.309,-90.4549 835.67,-87.0725"/>
<polygon fill="none" stroke="black" points="837.005,-83.8184 826.533,-82.2107 833.717,-89.998 837.005,-83.8184"/>
</g>
<!-- \\Ite\\Cache\\SessionCache -->
<g id="node3" class="node"><title>\\Ite\\Cache\\SessionCache</title>
<polygon fill="none" stroke="black" points="1061.85,-662 963.849,-662 963.849,-626 1061.85,-626 1061.85,-662"/>
<text text-anchor="middle" x="1012.85" y="-641.2" font-family="Courier,monospace" font-size="11.00">SessionCache</text>
</g>
<!-- \\Ite\\Cache\\AbstractPool -->
<g id="node7" class="node"><title>\\Ite\\Cache\\AbstractPool</title>
<polygon fill="none" stroke="black" points="752.813,-608 654.813,-608 654.813,-572 752.813,-572 752.813,-608"/>
<text text-anchor="start" x="669.813" y="-593.2" font-family="Courier,monospace" font-size="11.00">«abstract»</text>
<text text-anchor="start" x="662.813" y="-581.2" font-family="Courier,monospace" font-size="11.00">AbstractPool</text>
</g>
<!-- \\Ite\\Cache\\SessionCache&#45;&gt;\\Ite\\Cache\\AbstractPool -->
<g id="edge1" class="edge"><title>\\Ite\\Cache\\SessionCache&#45;&gt;\\Ite\\Cache\\AbstractPool</title>
<path fill="none" stroke="black" d="M963.537,-635.503C909.211,-625.949 821.019,-610.438 762.961,-600.227"/>
<polygon fill="none" stroke="black" points="763.298,-596.732 752.843,-598.447 762.086,-603.627 763.298,-596.732"/>
</g>
<!-- \\Ite\\Cache\\Item -->
<g id="node4" class="node"><title>\\Ite\\Cache\\Item</title>
<polygon fill="none" stroke="black" points="1039.85,-320 985.849,-320 985.849,-284 1039.85,-284 1039.85,-320"/>
<text text-anchor="middle" x="1012.85" y="-299.2" font-family="Courier,monospace" font-size="11.00">Item</text>
</g>
<!-- \\Psr\\Cache\\CacheItemInterface -->
<g id="node10" class="node"><title>\\Psr\\Cache\\CacheItemInterface</title>
<ellipse fill="none" stroke="black" cx="703.813" cy="-18" rx="120.779" ry="18"/>
<text text-anchor="middle" x="703.813" y="-14.3" font-family="Times,serif" font-size="14.00" fill="gray">\Psr\Cache\CacheItemInterface</text>
</g>
<!-- \\Ite\\Cache\\Item&#45;&gt;\\Psr\\Cache\\CacheItemInterface -->
<g id="edge2" class="edge"><title>\\Ite\\Cache\\Item&#45;&gt;\\Psr\\Cache\\CacheItemInterface</title>
<path fill="none" stroke="black" stroke-dasharray="1,5" d="M1006.24,-283.743C990.515,-235.851 941.164,-106.101 851.349,-45 841.92,-38.5853 831.393,-33.5792 820.425,-29.6868"/>
<polygon fill="none" stroke="black" points="821.282,-26.2855 810.69,-26.5455 819.132,-32.9473 821.282,-26.2855"/>
</g>
<!-- \\Ite\\Cache\\FileCache -->
<g id="node5" class="node"><title>\\Ite\\Cache\\FileCache</title>
<polygon fill="none" stroke="black" points="1051.35,-608 974.349,-608 974.349,-572 1051.35,-572 1051.35,-608"/>
<text text-anchor="middle" x="1012.85" y="-587.2" font-family="Courier,monospace" font-size="11.00">FileCache</text>
</g>
<!-- \\Ite\\Cache\\FileCache&#45;&gt;\\Ite\\Cache\\AbstractPool -->
<g id="edge5" class="edge"><title>\\Ite\\Cache\\FileCache&#45;&gt;\\Ite\\Cache\\AbstractPool</title>
<path fill="none" stroke="black" d="M974.201,-590C921.413,-590 824.929,-590 762.897,-590"/>
<polygon fill="none" stroke="black" points="762.871,-586.5 752.871,-590 762.871,-593.5 762.871,-586.5"/>
</g>
<!-- \\Ite\\Cache\\CacheStrategyFactory -->
<g id="node6" class="node"><title>\\Ite\\Cache\\CacheStrategyFactory</title>
<polygon fill="none" stroke="black" points="1088.85,-374 936.849,-374 936.849,-338 1088.85,-338 1088.85,-374"/>
<text text-anchor="middle" x="1012.85" y="-353.2" font-family="Courier,monospace" font-size="11.00">CacheStrategyFactory</text>
</g>
<!-- \\Ite\\Cache\\CachePoolInterface -->
<g id="node9" class="node"><title>\\Ite\\Cache\\CachePoolInterface</title>
<polygon fill="none" stroke="black" points="484.276,-608 346.276,-608 346.276,-572 484.276,-572 484.276,-608"/>
<text text-anchor="middle" x="415.276" y="-587.2" font-family="Courier,monospace" font-size="11.00">CachePoolInterface</text>
</g>
<!-- \\Ite\\Cache\\AbstractPool&#45;&gt;\\Ite\\Cache\\CachePoolInterface -->
<g id="edge8" class="edge"><title>\\Ite\\Cache\\AbstractPool&#45;&gt;\\Ite\\Cache\\CachePoolInterface</title>
<path fill="none" stroke="black" stroke-dasharray="1,5" d="M654.53,-590C610.793,-590 545.563,-590 494.408,-590"/>
<polygon fill="none" stroke="black" points="494.375,-586.5 484.375,-590 494.375,-593.5 494.375,-586.5"/>
</g>
<!-- \\Ite\\Cache\\Memcached -->
<g id="node8" class="node"><title>\\Ite\\Cache\\Memcached</title>
<polygon fill="none" stroke="black" points="1051.35,-554 974.349,-554 974.349,-518 1051.35,-518 1051.35,-554"/>
<text text-anchor="middle" x="1012.85" y="-533.2" font-family="Courier,monospace" font-size="11.00">Memcached</text>
</g>
<!-- \\Ite\\Cache\\Memcached&#45;&gt;\\Ite\\Cache\\AbstractPool -->
<g id="edge9" class="edge"><title>\\Ite\\Cache\\Memcached&#45;&gt;\\Ite\\Cache\\AbstractPool</title>
<path fill="none" stroke="black" d="M974.201,-542.621C921.413,-551.905 824.929,-568.875 762.897,-579.784"/>
<polygon fill="none" stroke="black" points="762.114,-576.368 752.871,-581.548 763.327,-583.263 762.114,-576.368"/>
</g>
<!-- \\Psr\\Cache\\CacheItemPoolInterface -->
<g id="node15" class="node"><title>\\Psr\\Cache\\CacheItemPoolInterface</title>
<ellipse fill="none" stroke="black" cx="137.138" cy="-590" rx="137.276" ry="18"/>
<text text-anchor="middle" x="137.138" y="-586.3" font-family="Times,serif" font-size="14.00" fill="gray">\Psr\Cache\CacheItemPoolInterface</text>
</g>
<!-- \\Ite\\Cache\\CachePoolInterface&#45;&gt;\\Psr\\Cache\\CacheItemPoolInterface -->
<g id="edge10" class="edge"><title>\\Ite\\Cache\\CachePoolInterface&#45;&gt;\\Psr\\Cache\\CacheItemPoolInterface</title>
<path fill="none" stroke="black" d="M346.017,-590C327.197,-590 306.028,-590 284.589,-590"/>
<polygon fill="none" stroke="black" points="284.391,-586.5 274.391,-590 284.391,-593.5 284.391,-586.5"/>
</g>
</g>
</svg>
